<?xml version="1.0" encoding="UTF-8"?>
<!--Generator: Apple Native CoreSVG 341-->
<!DOCTYPE svg
PUBLIC "-//W3C//DTD SVG 1.1//EN"
       "http://www.w3.org/Graphics/SVG/1.1/DTD/svg11.dtd">
<svg version="1.1" xmlns="http://www.w3.org/2000/svg" xmlns:xlink="http://www.w3.org/1999/xlink" viewBox="0 0 295 200">
 <defs/>
 <g clip-path="url(#clip0_310_7270)">
  <path d="M13 1H5C2.79086 1 1 2.79086 1 5V13" stroke="white" stroke-width="2"/>
  <path d="M282 199L290 199C292.209 199 294 197.209 294 195L294 187" stroke="white" stroke-width="2"/>
  <path d="M294 13L294 5C294 2.79086 292.209 1 290 1L282 0.999999" stroke="white" stroke-width="2"/>
  <path d="M1 187L1 195C1 197.209 2.79086 199 5 199L13 199" stroke="white" stroke-width="2"/>
  <path d="M154.852 41.7017H245.058M154.852 64.2916H198.798M154.852 86.8815H221.928M238.119 159.169H254.31M187.233 159.169H221.928M228.867 141.097H254.31M205.737 141.097H212.676M173.356 141.097H189.546M57.0594 134.682V142.249L57.7626 142.837C63.0249 147.234 69.7514 149.602 76.6762 149.493C83.601 149.385 90.2466 146.809 95.3622 142.249V135.368M57.0594 139.498C48.594 139.498 41.8124 140.7 33.6939 143.058L24.6501 145.692M96.9999 139.498C105.465 139.498 113.885 140.7 122.003 143.058L131.047 145.692M38.3083 89.9356L38.6158 103.408C38.616 109.407 40.1644 115.308 43.1181 120.568C46.0717 125.827 50.3352 130.274 55.5144 133.498L61.1071 136.977C65.6198 139.786 70.8597 141.278 76.2108 141.278C81.562 141.278 86.8019 139.786 91.3145 136.977L96.9119 133.498C102.09 130.273 106.353 125.826 109.306 120.567C112.258 115.308 113.806 109.406 113.806 103.408V87.1797M38.3083 89.9356L40.0545 89.9853C36.8395 90.7669 32.6369 93.5817 32.6369 96.821C32.6369 98.3936 33.1757 99.9209 34.1674 101.16C35.213 102.466 36.684 103.333 38.3083 103.702V89.9356ZM38.6158 96.821H37.2003M115.221 96.821H113.806M115.444 103.702L115.642 103.657C117.205 103.277 118.593 102.398 119.584 101.16C120.576 99.9209 121.115 98.3936 121.115 96.821C121.115 93.5817 118.857 90.7669 115.642 89.9853L115.444 89.9356V103.702ZM88.7888 62.5206L93.4518 57.5824L94.1688 57.6954C98.7685 58.41 103.016 60.5369 106.294 63.7676C109.573 66.9983 111.713 71.1649 112.404 75.6633L115.444 95.443C118.016 83.1813 117.308 73.5444 113.316 66.528C112.784 55.0072 106.4 47.2046 94.1642 43.1249C86.6979 25.0168 58.3039 30.9309 46.4892 47.3944C38.6112 58.373 36.5342 74.3893 40.2534 95.443L43.4824 76.8742C43.8277 74.8899 44.6312 73.0084 45.8319 71.3726C47.0326 69.7367 48.5989 68.3893 50.4121 67.4327C52.2253 66.476 54.2378 65.9352 56.2969 65.8513C58.3559 65.7673 60.4075 66.1425 62.2961 66.9482L63.8966 67.6259C68.0742 69.4083 72.7168 69.8745 77.1783 68.9594C81.6399 68.0444 85.6983 65.7937 88.7888 62.5206Z" stroke-linecap="round" stroke-linejoin="round" stroke="white" stroke-opacity="0.72" stroke-width="4"/>
 </g>
</svg>
